<svg xmlns="http://www.w3.org/2000/svg" xmlns:xlink="http://www.w3.org/1999/xlink" width="529" zoomAndPan="magnify" viewBox="0 0 396.75 396.749985" height="529" preserveAspectRatio="xMidYMid meet" version="1.0"><defs><g/><clipPath id="895909c52c"><path d="M 0.277344 0.933594 L 380.675781 0.933594 L 380.675781 194.96875 L 0.277344 194.96875 Z M 0.277344 0.933594 " clip-rule="nonzero"/></clipPath><clipPath id="c4b4b3625f"><path d="M 0.277344 18 L 100 18 L 100 166 L 0.277344 166 Z M 0.277344 18 " clip-rule="nonzero"/></clipPath><clipPath id="aed66a468e"><rect x="0" width="100" y="0" height="148"/></clipPath><clipPath id="e8b36247f5"><path d="M 89 60 L 150 60 L 150 194.96875 L 89 194.96875 Z M 89 60 " clip-rule="nonzero"/></clipPath><clipPath id="50841e96e4"><rect x="0" width="61" y="0" height="135"/></clipPath><clipPath id="933beb0808"><rect x="0" width="61" y="0" height="136"/></clipPath><clipPath id="702fd832a7"><rect x="0" width="90" y="0" height="136"/></clipPath><clipPath id="ad077e13b6"><path d="M 357.292969 26.367188 L 380.488281 26.367188 L 380.488281 49.5625 L 357.292969 49.5625 Z M 357.292969 26.367188 " clip-rule="nonzero"/></clipPath><clipPath id="6e70553fab"><path d="M 157.507812 13.390625 L 191 13.390625 L 191 34.226562 L 157.507812 34.226562 Z M 157.507812 13.390625 " clip-rule="nonzero"/></clipPath><clipPath id="e2c33bd1cb"><path d="M 171.878906 26.335938 C 170.75 16.523438 170.925781 15.628906 171.34375 14.917969 C 171.699219 14.320312 172.234375 13.667969 172.832031 13.488281 C 173.664062 13.3125 175.210938 13.785156 175.863281 14.320312 C 176.398438 14.738281 176.519531 15.273438 176.753906 16.226562 C 177.230469 18.722656 177.054688 27.226562 176.398438 30.082031 C 176.101562 31.453125 175.746094 32.640625 175.03125 32.996094 C 174.496094 33.296875 173.425781 32.9375 172.890625 32.582031 C 172.355469 32.222656 172.058594 31.453125 171.820312 30.796875 C 171.582031 30.082031 171.222656 29.011719 171.582031 28.535156 C 171.996094 28.0625 174.316406 27.882812 174.734375 28.359375 C 175.089844 28.714844 174.792969 29.84375 174.496094 30.5 C 174.136719 31.273438 173.601562 32.222656 172.769531 32.460938 C 171.640625 32.820312 169.855469 31.453125 168.011719 31.273438 C 165.753906 30.976562 161.054688 32.402344 160.160156 31.390625 C 159.566406 30.796875 159.984375 28.476562 160.398438 28.300781 C 160.757812 28.121094 161.230469 29.074219 161.945312 29.25 C 163.195312 29.488281 165.871094 28.359375 167.535156 28.300781 C 168.90625 28.238281 170.09375 28.359375 171.34375 28.597656 C 172.59375 28.894531 175.089844 29.371094 175.148438 29.84375 C 175.210938 30.203125 173.664062 31.152344 173.425781 30.976562 C 173.128906 30.796875 173.367188 28.953125 173.78125 28.238281 C 174.136719 27.644531 174.734375 27.050781 175.386719 26.929688 C 176.160156 26.753906 177.289062 27.289062 178.0625 27.703125 C 178.777344 28.0625 179.90625 28.953125 179.789062 29.25 C 179.730469 29.546875 178.242188 29.90625 177.765625 29.667969 C 177.351562 29.429688 176.992188 28.476562 177.171875 28 C 177.351562 27.347656 178.597656 26.394531 179.492188 26.335938 C 180.679688 26.277344 182.285156 28.238281 183.65625 28.535156 C 184.964844 28.835938 187.402344 28.179688 187.519531 28.476562 C 187.582031 28.714844 185.855469 29.25 185.675781 29.785156 C 185.5 30.261719 186.511719 31.214844 186.273438 31.570312 C 185.914062 31.988281 183.535156 31.453125 182.644531 31.214844 C 182.050781 31.035156 181.574219 30.917969 181.277344 30.558594 C 180.917969 30.203125 180.621094 29.667969 180.679688 29.132812 C 180.742188 28.476562 181.214844 27.527344 181.988281 27.050781 C 183.296875 26.394531 187.164062 26.574219 188.589844 27.050781 C 189.363281 27.347656 189.898438 27.765625 190.136719 28.300781 C 190.375 28.714844 190.433594 29.308594 190.257812 29.785156 C 190.078125 30.320312 188.890625 31.273438 188.890625 31.214844 C 188.828125 31.214844 189.898438 29.546875 190.136719 29.667969 C 190.375 29.726562 190.554688 31.75 190.078125 32.34375 C 189.542969 33.058594 187.699219 33.234375 186.449219 33.234375 C 185.140625 33.234375 183.238281 33.117188 182.347656 32.34375 C 181.632812 31.6875 181.039062 30.023438 181.394531 29.308594 C 181.75 28.597656 183.832031 28.535156 185.140625 28.359375 C 186.449219 28.121094 188.117188 27.824219 189.066406 28.121094 C 189.722656 28.300781 190.554688 29.191406 190.554688 29.191406 C 190.554688 29.25 189.839844 28.773438 189.839844 28.835938 C 189.78125 28.894531 190.671875 29.488281 190.851562 29.964844 C 191.03125 30.5 190.910156 31.453125 190.671875 31.988281 C 190.375 32.402344 189.839844 32.761719 189.425781 32.878906 C 188.949219 32.996094 188.292969 32.996094 187.878906 32.699219 C 187.34375 32.34375 186.6875 31.273438 186.6875 30.617188 C 186.6875 30.023438 187.28125 29.191406 187.816406 28.894531 C 188.292969 28.597656 189.304688 28.597656 189.839844 28.835938 C 190.316406 29.132812 190.910156 29.90625 190.96875 30.5 C 191.089844 31.09375 190.792969 32.046875 190.316406 32.402344 C 189.722656 32.820312 188.292969 32.9375 187.699219 32.582031 C 187.164062 32.285156 186.6875 31.453125 186.6875 30.855469 C 186.746094 30.144531 187.640625 29.011719 188.234375 28.714844 C 188.710938 28.476562 189.363281 28.65625 189.839844 28.835938 C 190.257812 29.074219 190.671875 29.546875 190.851562 29.964844 C 191.03125 30.441406 191.03125 31.035156 190.910156 31.511719 C 190.734375 31.925781 190.316406 32.460938 189.898438 32.640625 C 189.363281 32.9375 188.355469 32.9375 187.878906 32.699219 C 187.519531 32.523438 187.105469 31.75 187.222656 31.570312 C 187.402344 31.332031 189.363281 31.75 189.363281 31.867188 C 189.363281 32.222656 182.347656 33.769531 180.679688 33.414062 C 179.90625 33.234375 179.371094 32.878906 179.132812 32.285156 C 178.777344 31.453125 179.074219 29.308594 179.671875 28.597656 C 180.085938 28.0625 180.800781 27.941406 181.574219 27.882812 C 182.941406 27.824219 186.449219 28.417969 187.105469 29.371094 C 187.519531 30.023438 187.046875 31.925781 186.808594 31.925781 C 186.628906 31.988281 186.152344 30.917969 186.035156 30.320312 C 185.855469 29.726562 185.738281 28.773438 186.09375 28.238281 C 186.511719 27.644531 187.878906 26.992188 188.589844 27.050781 C 189.1875 27.109375 189.898438 27.765625 190.136719 28.300781 C 190.375 28.835938 190.316406 29.785156 190.078125 30.261719 C 189.839844 30.679688 189.425781 30.976562 188.890625 31.214844 C 187.996094 31.628906 186.152344 31.808594 184.902344 31.75 C 183.773438 31.6875 182.347656 31.332031 181.691406 30.855469 C 181.214844 30.558594 180.859375 30.144531 180.742188 29.667969 C 180.621094 29.191406 180.679688 28.535156 180.859375 28.121094 C 181.097656 27.703125 181.515625 27.289062 181.988281 27.050781 C 182.523438 26.8125 183.296875 26.691406 184.070312 26.691406 C 185.140625 26.753906 186.867188 27.109375 187.816406 27.644531 C 188.652344 28.121094 189.484375 28.773438 189.660156 29.488281 C 189.839844 30.144531 189.660156 31.09375 189.1875 31.628906 C 188.652344 32.285156 187.582031 32.640625 186.511719 32.761719 C 184.902344 32.9375 181.871094 32.402344 180.5625 31.75 C 179.730469 31.332031 178.835938 30.738281 178.898438 30.203125 C 178.957031 29.609375 180.976562 28.359375 181.394531 28.535156 C 181.8125 28.714844 181.929688 29.785156 181.75 30.441406 C 181.632812 31.214844 180.859375 32.402344 180.144531 32.820312 C 179.433594 33.175781 178.421875 33.234375 177.648438 32.9375 C 176.578125 32.523438 174.554688 30.261719 174.613281 30.203125 C 174.675781 30.082031 175.863281 31.214844 176.339844 31.152344 C 176.816406 31.09375 177.351562 29.726562 177.589844 29.785156 C 177.828125 29.90625 177.765625 31.09375 177.589844 31.6875 C 177.410156 32.222656 177.054688 32.878906 176.578125 33.296875 C 176.042969 33.710938 175.386719 34.066406 174.496094 34.128906 C 173.128906 34.1875 170.988281 32.820312 168.964844 32.640625 C 166.585938 32.460938 162.660156 33.652344 160.996094 33.355469 C 160.160156 33.175781 159.804688 32.761719 159.269531 32.402344 C 158.675781 31.988281 157.78125 31.6875 157.605469 31.035156 C 157.367188 30.082031 158.257812 27.765625 159.089844 27.109375 C 159.6875 26.632812 160.398438 26.753906 161.351562 26.691406 C 162.839844 26.574219 165.335938 26.691406 167.238281 26.992188 C 169.082031 27.347656 172.53125 28.476562 172.53125 28.65625 C 172.53125 28.714844 170.628906 28.894531 170.390625 28.535156 C 170.152344 28.238281 170.449219 27.226562 170.867188 26.8125 C 171.460938 26.21875 173.246094 25.503906 174.078125 25.800781 C 174.792969 26.039062 175.445312 27.109375 175.625 27.882812 C 175.863281 28.597656 175.921875 29.667969 175.507812 30.144531 C 174.972656 30.679688 172.890625 31.152344 172.175781 30.5 C 170.628906 29.074219 171.046875 17.058594 172.414062 16.164062 C 172.949219 15.808594 174.078125 16.226562 174.613281 16.9375 C 175.746094 18.367188 175.863281 24.847656 175.507812 26.457031 C 175.386719 27.050781 175.148438 27.347656 174.851562 27.585938 C 174.554688 27.824219 174.019531 28 173.601562 28 C 173.1875 28 172.710938 27.765625 172.414062 27.464844 C 172.117188 27.226562 171.878906 26.335938 171.878906 26.335938 " clip-rule="nonzero"/></clipPath><clipPath id="44d89f3cf9"><path d="M 0.507812 0.390625 L 34 0.390625 L 34 21.226562 L 0.507812 21.226562 Z M 0.507812 0.390625 " clip-rule="nonzero"/></clipPath><clipPath id="c48e86c461"><path d="M 14.878906 13.335938 C 13.75 3.523438 13.925781 2.628906 14.34375 1.917969 C 14.699219 1.320312 15.234375 0.667969 15.832031 0.488281 C 16.664062 0.3125 18.210938 0.785156 18.863281 1.320312 C 19.398438 1.738281 19.519531 2.273438 19.753906 3.226562 C 20.230469 5.722656 20.054688 14.226562 19.398438 17.082031 C 19.101562 18.453125 18.746094 19.640625 18.03125 19.996094 C 17.496094 20.296875 16.425781 19.9375 15.890625 19.582031 C 15.355469 19.222656 15.058594 18.453125 14.820312 17.796875 C 14.582031 17.082031 14.222656 16.011719 14.582031 15.535156 C 14.996094 15.0625 17.316406 14.882812 17.734375 15.359375 C 18.089844 15.714844 17.792969 16.84375 17.496094 17.5 C 17.136719 18.273438 16.601562 19.222656 15.769531 19.460938 C 14.640625 19.820312 12.855469 18.453125 11.011719 18.273438 C 8.753906 17.976562 4.054688 19.402344 3.160156 18.390625 C 2.566406 17.796875 2.984375 15.476562 3.398438 15.300781 C 3.757812 15.121094 4.230469 16.074219 4.945312 16.25 C 6.195312 16.488281 8.871094 15.359375 10.535156 15.300781 C 11.90625 15.238281 13.09375 15.359375 14.34375 15.597656 C 15.59375 15.894531 18.089844 16.371094 18.148438 16.84375 C 18.210938 17.203125 16.664062 18.152344 16.425781 17.976562 C 16.128906 17.796875 16.367188 15.953125 16.78125 15.238281 C 17.136719 14.644531 17.734375 14.050781 18.386719 13.929688 C 19.160156 13.753906 20.289062 14.289062 21.0625 14.703125 C 21.777344 15.0625 22.90625 15.953125 22.789062 16.25 C 22.730469 16.546875 21.242188 16.90625 20.765625 16.667969 C 20.351562 16.429688 19.992188 15.476562 20.171875 15 C 20.351562 14.347656 21.597656 13.394531 22.492188 13.335938 C 23.679688 13.277344 25.285156 15.238281 26.65625 15.535156 C 27.964844 15.835938 30.402344 15.179688 30.519531 15.476562 C 30.582031 15.714844 28.855469 16.25 28.675781 16.785156 C 28.5 17.261719 29.511719 18.214844 29.273438 18.570312 C 28.914062 18.988281 26.535156 18.453125 25.644531 18.214844 C 25.050781 18.035156 24.574219 17.917969 24.277344 17.558594 C 23.917969 17.203125 23.621094 16.667969 23.679688 16.132812 C 23.742188 15.476562 24.214844 14.527344 24.988281 14.050781 C 26.296875 13.394531 30.164062 13.574219 31.589844 14.050781 C 32.363281 14.347656 32.898438 14.765625 33.136719 15.300781 C 33.375 15.714844 33.433594 16.308594 33.257812 16.785156 C 33.078125 17.320312 31.890625 18.273438 31.890625 18.214844 C 31.828125 18.214844 32.898438 16.546875 33.136719 16.667969 C 33.375 16.726562 33.554688 18.75 33.078125 19.34375 C 32.542969 20.058594 30.699219 20.234375 29.449219 20.234375 C 28.140625 20.234375 26.238281 20.117188 25.347656 19.34375 C 24.632812 18.6875 24.039062 17.023438 24.394531 16.308594 C 24.75 15.597656 26.832031 15.535156 28.140625 15.359375 C 29.449219 15.121094 31.117188 14.824219 32.066406 15.121094 C 32.722656 15.300781 33.554688 16.191406 33.554688 16.191406 C 33.554688 16.25 32.839844 15.773438 32.839844 15.835938 C 32.78125 15.894531 33.671875 16.488281 33.851562 16.964844 C 34.03125 17.5 33.910156 18.453125 33.671875 18.988281 C 33.375 19.402344 32.839844 19.761719 32.425781 19.878906 C 31.949219 19.996094 31.292969 19.996094 30.878906 19.699219 C 30.34375 19.34375 29.6875 18.273438 29.6875 17.617188 C 29.6875 17.023438 30.28125 16.191406 30.816406 15.894531 C 31.292969 15.597656 32.304688 15.597656 32.839844 15.835938 C 33.316406 16.132812 33.910156 16.90625 33.96875 17.5 C 34.089844 18.09375 33.792969 19.046875 33.316406 19.402344 C 32.722656 19.820312 31.292969 19.9375 30.699219 19.582031 C 30.164062 19.285156 29.6875 18.453125 29.6875 17.855469 C 29.746094 17.144531 30.640625 16.011719 31.234375 15.714844 C 31.710938 15.476562 32.363281 15.65625 32.839844 15.835938 C 33.257812 16.074219 33.671875 16.546875 33.851562 16.964844 C 34.03125 17.441406 34.03125 18.035156 33.910156 18.511719 C 33.734375 18.925781 33.316406 19.460938 32.898438 19.640625 C 32.363281 19.9375 31.355469 19.9375 30.878906 19.699219 C 30.519531 19.523438 30.105469 18.75 30.222656 18.570312 C 30.402344 18.332031 32.363281 18.75 32.363281 18.867188 C 32.363281 19.222656 25.347656 20.769531 23.679688 20.414062 C 22.90625 20.234375 22.371094 19.878906 22.132812 19.285156 C 21.777344 18.453125 22.074219 16.308594 22.671875 15.597656 C 23.085938 15.0625 23.800781 14.941406 24.574219 14.882812 C 25.941406 14.824219 29.449219 15.417969 30.105469 16.371094 C 30.519531 17.023438 30.046875 18.925781 29.808594 18.925781 C 29.628906 18.988281 29.152344 17.917969 29.035156 17.320312 C 28.855469 16.726562 28.738281 15.773438 29.09375 15.238281 C 29.511719 14.644531 30.878906 13.992188 31.589844 14.050781 C 32.1875 14.109375 32.898438 14.765625 33.136719 15.300781 C 33.375 15.835938 33.316406 16.785156 33.078125 17.261719 C 32.839844 17.679688 32.425781 17.976562 31.890625 18.214844 C 30.996094 18.628906 29.152344 18.808594 27.902344 18.75 C 26.773438 18.6875 25.347656 18.332031 24.691406 17.855469 C 24.214844 17.558594 23.859375 17.144531 23.742188 16.667969 C 23.621094 16.191406 23.679688 15.535156 23.859375 15.121094 C 24.097656 14.703125 24.515625 14.289062 24.988281 14.050781 C 25.523438 13.8125 26.296875 13.691406 27.070312 13.691406 C 28.140625 13.753906 29.867188 14.109375 30.816406 14.644531 C 31.652344 15.121094 32.484375 15.773438 32.660156 16.488281 C 32.839844 17.144531 32.660156 18.09375 32.1875 18.628906 C 31.652344 19.285156 30.582031 19.640625 29.511719 19.761719 C 27.902344 19.9375 24.871094 19.402344 23.5625 18.75 C 22.730469 18.332031 21.835938 17.738281 21.898438 17.203125 C 21.957031 16.609375 23.976562 15.359375 24.394531 15.535156 C 24.8125 15.714844 24.929688 16.785156 24.75 17.441406 C 24.632812 18.214844 23.859375 19.402344 23.144531 19.820312 C 22.433594 20.175781 21.421875 20.234375 20.648438 19.9375 C 19.578125 19.523438 17.554688 17.261719 17.613281 17.203125 C 17.675781 17.082031 18.863281 18.214844 19.339844 18.152344 C 19.816406 18.09375 20.351562 16.726562 20.589844 16.785156 C 20.828125 16.90625 20.765625 18.09375 20.589844 18.6875 C 20.410156 19.222656 20.054688 19.878906 19.578125 20.296875 C 19.042969 20.710938 18.386719 21.066406 17.496094 21.128906 C 16.128906 21.1875 13.988281 19.820312 11.964844 19.640625 C 9.585938 19.460938 5.660156 20.652344 3.996094 20.355469 C 3.160156 20.175781 2.804688 19.761719 2.269531 19.402344 C 1.675781 18.988281 0.78125 18.6875 0.605469 18.035156 C 0.367188 17.082031 1.257812 14.765625 2.089844 14.109375 C 2.6875 13.632812 3.398438 13.753906 4.351562 13.691406 C 5.839844 13.574219 8.335938 13.691406 10.238281 13.992188 C 12.082031 14.347656 15.53125 15.476562 15.53125 15.65625 C 15.53125 15.714844 13.628906 15.894531 13.390625 15.535156 C 13.152344 15.238281 13.449219 14.226562 13.867188 13.8125 C 14.460938 13.21875 16.246094 12.503906 17.078125 12.800781 C 17.792969 13.039062 18.445312 14.109375 18.625 14.882812 C 18.863281 15.597656 18.921875 16.667969 18.507812 17.144531 C 17.972656 17.679688 15.890625 18.152344 15.175781 17.5 C 13.628906 16.074219 14.046875 4.058594 15.414062 3.164062 C 15.949219 2.808594 17.078125 3.226562 17.613281 3.9375 C 18.746094 5.367188 18.863281 11.847656 18.507812 13.457031 C 18.386719 14.050781 18.148438 14.347656 17.851562 14.585938 C 17.554688 14.824219 17.019531 15 16.601562 15 C 16.1875 15 15.710938 14.765625 15.414062 14.464844 C 15.117188 14.226562 14.878906 13.335938 14.878906 13.335938 " clip-rule="nonzero"/></clipPath><clipPath id="18ac1aa87a"><rect x="0" width="34" y="0" height="22"/></clipPath><clipPath id="c8520d234e"><path d="M 170.375 29.789062 L 177.714844 29.789062 L 177.714844 65.476562 L 170.375 65.476562 Z M 170.375 29.789062 " clip-rule="nonzero"/></clipPath><clipPath id="c7dc818875"><path d="M 177.648438 32.582031 C 175.386719 35.914062 176.042969 37.875 175.566406 38.707031 C 175.269531 39.300781 174.613281 39.71875 174.078125 39.71875 C 173.484375 39.777344 172.59375 39.363281 172.117188 38.707031 C 171.34375 37.695312 170.867188 34.722656 171.164062 33.472656 C 171.402344 32.699219 172.058594 31.925781 172.652344 31.75 C 173.246094 31.570312 174.257812 31.808594 174.792969 32.460938 C 175.804688 33.769531 175.625 38.648438 175.625 41.027344 C 175.566406 42.8125 175.746094 45.132812 175.089844 45.605469 C 174.613281 45.964844 173.542969 45.011719 172.949219 45.191406 C 172.355469 45.308594 171.699219 46.558594 171.460938 46.441406 C 170.867188 46.082031 172.058594 39.0625 172.890625 37.636719 C 173.1875 37.042969 173.542969 36.804688 174.019531 36.683594 C 174.4375 36.507812 175.03125 36.449219 175.507812 36.683594 C 176.042969 36.984375 176.578125 37.695312 176.816406 38.648438 C 177.410156 40.730469 176.339844 46.023438 176.398438 49.054688 C 176.398438 51.4375 176.933594 53.28125 176.816406 55.421875 C 176.695312 57.5625 176.28125 60.238281 175.566406 62.023438 C 175.089844 63.332031 174.4375 64.816406 173.664062 65.234375 C 173.066406 65.53125 172.175781 65.414062 171.640625 65.175781 C 171.222656 64.996094 170.867188 64.699219 170.6875 64.042969 C 170.035156 62.261719 170.570312 55.0625 171.105469 52.386719 C 171.402344 50.839844 171.640625 49.472656 172.355469 48.9375 C 172.890625 48.519531 173.78125 48.460938 174.375 48.699219 C 174.910156 48.9375 175.507812 49.652344 175.625 50.246094 C 175.746094 50.839844 175.507812 51.792969 175.089844 52.207031 C 174.675781 52.625 173.722656 52.921875 173.1875 52.804688 C 172.59375 52.683594 171.820312 52.148438 171.582031 51.554688 C 171.34375 51.019531 171.34375 50.066406 171.699219 49.589844 C 172.117188 48.996094 173.484375 48.519531 174.136719 48.640625 C 174.734375 48.757812 175.445312 49.472656 175.566406 50.007812 C 175.746094 50.722656 174.554688 52.328125 174.734375 52.507812 C 174.792969 52.566406 175.148438 52.148438 175.269531 52.207031 C 175.625 52.386719 175.566406 54.707031 175.507812 56.253906 C 175.445312 58.574219 175.445312 63.269531 174.4375 64.578125 C 173.839844 65.292969 172.769531 65.53125 172.117188 65.414062 C 171.460938 65.234375 170.628906 64.28125 170.570312 63.570312 C 170.449219 62.734375 171.523438 61.902344 171.878906 60.773438 C 172.292969 59.226562 172.53125 57.144531 172.59375 55.125 C 172.710938 52.683594 172.175781 49.828125 172.175781 47.152344 C 172.175781 44.359375 172.234375 40.253906 172.59375 38.648438 C 172.769531 37.933594 172.832031 37.578125 173.1875 37.21875 C 173.542969 36.863281 174.4375 36.507812 174.972656 36.566406 C 175.507812 36.566406 176.042969 36.921875 176.339844 37.28125 C 176.636719 37.636719 176.753906 37.992188 176.816406 38.648438 C 176.992188 40.253906 176.398438 45.25 175.625 46.914062 C 175.148438 47.808594 174.613281 48.582031 173.960938 48.640625 C 173.1875 48.640625 171.757812 47.6875 171.164062 46.441406 C 169.976562 44.058594 170.332031 35.734375 171.164062 33.472656 C 171.523438 32.523438 172.117188 31.988281 172.652344 31.75 C 173.066406 31.570312 173.664062 31.6875 174.078125 31.867188 C 174.4375 32.046875 174.792969 32.34375 175.03125 32.878906 C 175.566406 33.949219 176.160156 37.101562 175.746094 38.292969 C 175.445312 39.003906 174.613281 39.601562 174.078125 39.71875 C 173.601562 39.835938 173.066406 39.660156 172.710938 39.421875 C 172.355469 39.183594 172.058594 38.828125 171.9375 38.292969 C 171.699219 37.160156 172.058594 34.542969 172.769531 33.117188 C 173.425781 31.75 174.972656 30.023438 175.863281 29.84375 C 176.457031 29.726562 177.171875 30.082031 177.46875 30.5 C 177.765625 30.917969 177.648438 32.582031 177.648438 32.582031 " clip-rule="nonzero"/></clipPath><clipPath id="e503d0fa36"><path d="M 0.375 0.789062 L 7.714844 0.789062 L 7.714844 36.476562 L 0.375 36.476562 Z M 0.375 0.789062 " clip-rule="nonzero"/></clipPath><clipPath id="f2187eaddd"><path d="M 7.648438 3.582031 C 5.386719 6.914062 6.042969 8.875 5.566406 9.707031 C 5.269531 10.300781 4.613281 10.71875 4.078125 10.71875 C 3.484375 10.777344 2.59375 10.363281 2.117188 9.707031 C 1.34375 8.695312 0.867188 5.722656 1.164062 4.472656 C 1.402344 3.699219 2.058594 2.925781 2.652344 2.75 C 3.246094 2.570312 4.257812 2.808594 4.792969 3.460938 C 5.804688 4.769531 5.625 9.648438 5.625 12.027344 C 5.566406 13.8125 5.746094 16.132812 5.089844 16.605469 C 4.613281 16.964844 3.542969 16.011719 2.949219 16.191406 C 2.355469 16.308594 1.699219 17.558594 1.460938 17.441406 C 0.867188 17.082031 2.058594 10.0625 2.890625 8.636719 C 3.1875 8.042969 3.542969 7.804688 4.019531 7.683594 C 4.4375 7.507812 5.03125 7.449219 5.507812 7.683594 C 6.042969 7.984375 6.578125 8.695312 6.816406 9.648438 C 7.410156 11.730469 6.339844 17.023438 6.398438 20.054688 C 6.398438 22.4375 6.933594 24.28125 6.816406 26.421875 C 6.695312 28.5625 6.28125 31.238281 5.566406 33.023438 C 5.089844 34.332031 4.4375 35.816406 3.664062 36.234375 C 3.066406 36.53125 2.175781 36.414062 1.640625 36.175781 C 1.222656 35.996094 0.867188 35.699219 0.6875 35.042969 C 0.0351562 33.261719 0.570312 26.0625 1.105469 23.386719 C 1.402344 21.839844 1.640625 20.472656 2.355469 19.9375 C 2.890625 19.519531 3.78125 19.460938 4.375 19.699219 C 4.910156 19.9375 5.507812 20.652344 5.625 21.246094 C 5.746094 21.839844 5.507812 22.792969 5.089844 23.207031 C 4.675781 23.625 3.722656 23.921875 3.1875 23.804688 C 2.59375 23.683594 1.820312 23.148438 1.582031 22.554688 C 1.34375 22.019531 1.34375 21.066406 1.699219 20.589844 C 2.117188 19.996094 3.484375 19.519531 4.136719 19.640625 C 4.734375 19.757812 5.445312 20.472656 5.566406 21.007812 C 5.746094 21.722656 4.554688 23.328125 4.734375 23.507812 C 4.792969 23.566406 5.148438 23.148438 5.269531 23.207031 C 5.625 23.386719 5.566406 25.707031 5.507812 27.253906 C 5.445312 29.574219 5.445312 34.269531 4.4375 35.578125 C 3.839844 36.292969 2.769531 36.53125 2.117188 36.414062 C 1.460938 36.234375 0.628906 35.28125 0.570312 34.570312 C 0.449219 33.734375 1.523438 32.902344 1.878906 31.773438 C 2.292969 30.226562 2.53125 28.144531 2.59375 26.125 C 2.710938 23.683594 2.175781 20.828125 2.175781 18.152344 C 2.175781 15.359375 2.234375 11.253906 2.59375 9.648438 C 2.769531 8.933594 2.832031 8.578125 3.1875 8.21875 C 3.542969 7.863281 4.4375 7.507812 4.972656 7.566406 C 5.507812 7.566406 6.042969 7.921875 6.339844 8.28125 C 6.636719 8.636719 6.753906 8.992188 6.816406 9.648438 C 6.992188 11.253906 6.398438 16.25 5.625 17.914062 C 5.148438 18.808594 4.613281 19.582031 3.960938 19.640625 C 3.1875 19.640625 1.757812 18.6875 1.164062 17.441406 C -0.0234375 15.058594 0.332031 6.734375 1.164062 4.472656 C 1.523438 3.523438 2.117188 2.988281 2.652344 2.75 C 3.066406 2.570312 3.664062 2.6875 4.078125 2.867188 C 4.4375 3.046875 4.792969 3.34375 5.03125 3.878906 C 5.566406 4.949219 6.160156 8.101562 5.746094 9.292969 C 5.445312 10.003906 4.613281 10.601562 4.078125 10.71875 C 3.601562 10.835938 3.066406 10.660156 2.710938 10.421875 C 2.355469 10.183594 2.058594 9.828125 1.9375 9.292969 C 1.699219 8.160156 2.058594 5.542969 2.769531 4.117188 C 3.425781 2.75 4.972656 1.023438 5.863281 0.84375 C 6.457031 0.726562 7.171875 1.082031 7.46875 1.5 C 7.765625 1.917969 7.648438 3.582031 7.648438 3.582031 " clip-rule="nonzero"/></clipPath><clipPath id="20606d986f"><rect x="0" width="8" y="0" height="37"/></clipPath><clipPath id="28bb1f57db"><rect x="0" width="381" y="0" height="195"/></clipPath><clipPath id="eff18e093a"><rect x="0" width="381" y="0" height="195"/></clipPath></defs><g transform="matrix(1, 0, 0, 1, 5, 107)"><g clip-path="url(#eff18e093a)"><g clip-path="url(#895909c52c)"><g><g clip-path="url(#28bb1f57db)"><g clip-path="url(#c4b4b3625f)"><g transform="matrix(1, 0, 0, 1, 0, 18)"><g clip-path="url(#aed66a468e)"><g fill="#fbf6f3" fill-opacity="1"><g transform="translate(2.272209, 105.548777)"><g><path d="M 93.0625 -53.34375 L 93.0625 -32.671875 C 90.601562 -21.359375 85.21875 -12.796875 76.90625 -6.984375 C 68.59375 -1.171875 59.316406 1.734375 49.078125 1.734375 C 36.222656 1.734375 25.269531 -3.078125 16.21875 -12.703125 C 7.175781 -22.328125 2.65625 -33.953125 2.65625 -47.578125 C 2.65625 -61.429688 7.082031 -73.128906 15.9375 -82.671875 C 24.789062 -92.222656 35.835938 -97 49.078125 -97 C 64.546875 -97 76.785156 -91.570312 85.796875 -80.71875 L 71.59375 -65.125 C 66.507812 -73.28125 59.425781 -77.359375 50.34375 -77.359375 C 43.644531 -77.359375 37.925781 -74.453125 33.1875 -68.640625 C 28.457031 -62.828125 26.09375 -55.804688 26.09375 -47.578125 C 26.09375 -39.492188 28.457031 -32.582031 33.1875 -26.84375 C 37.925781 -21.113281 43.644531 -18.25 50.34375 -18.25 C 55.882812 -18.25 60.710938 -19.921875 64.828125 -23.265625 C 68.953125 -26.617188 71.015625 -31.066406 71.015625 -36.609375 L 49.078125 -36.609375 L 49.078125 -53.34375 Z M 93.0625 -53.34375 "/></g></g></g></g></g></g><g clip-path="url(#e8b36247f5)"><g transform="matrix(1, 0, 0, 1, 89, 60)"><g clip-path="url(#50841e96e4)"><g fill="#fbf6f3" fill-opacity="1"><g transform="translate(1.680936, 96.251391)"><g><path d="M 26.734375 -88.953125 L 26.734375 -17.796875 L 57.359375 -17.796875 L 57.359375 0 L 6.46875 0 L 6.46875 -88.953125 Z M 26.734375 -88.953125 "/></g></g></g></g></g></g><g transform="matrix(1, 0, 0, 1, 226, 27)"><g clip-path="url(#933beb0808)"><g fill="#fbf6f3" fill-opacity="1"><g transform="translate(1.683101, 96.355149)"><g><path d="M 26.734375 -88.953125 L 26.734375 -17.796875 L 57.359375 -17.796875 L 57.359375 0 L 6.46875 0 L 6.46875 -88.953125 Z M 26.734375 -88.953125 "/></g></g></g></g></g><g transform="matrix(1, 0, 0, 1, 272, 45)"><g clip-path="url(#702fd832a7)"><g fill="#fbf6f3" fill-opacity="1"><g transform="translate(5.004045, 96.98482)"><g><path d="M -3.234375 -88.953125 L 21.140625 -88.953125 L 39.6875 -60.484375 L 58.234375 -88.953125 L 82.59375 -88.953125 L 49.8125 -39.890625 L 49.8125 0 L 29.546875 0 L 29.546875 -39.890625 Z M -3.234375 -88.953125 "/></g></g></g></g></g><g clip-path="url(#ad077e13b6)"><path fill="#fbf6f3" d="M 368.890625 47.808594 C 363.464844 47.808594 359.046875 43.394531 359.046875 37.964844 C 359.046875 32.535156 363.464844 28.121094 368.890625 28.121094 C 374.320312 28.121094 378.738281 32.535156 378.738281 37.964844 C 378.738281 43.394531 374.320312 47.808594 368.890625 47.808594 Z M 377.09375 29.765625 C 374.902344 27.574219 371.988281 26.367188 368.890625 26.367188 C 365.792969 26.367188 362.882812 27.574219 360.691406 29.765625 C 358.5 31.957031 357.292969 34.867188 357.292969 37.964844 C 357.292969 41.0625 358.5 43.976562 360.691406 46.164062 C 362.882812 48.355469 365.792969 49.5625 368.890625 49.5625 C 371.988281 49.5625 374.902344 48.355469 377.09375 46.164062 C 379.28125 43.976562 380.488281 41.0625 380.488281 37.964844 C 380.488281 34.867188 379.28125 31.957031 377.09375 29.765625 " fill-opacity="1" fill-rule="nonzero"/></g><path fill="#fbf6f3" d="M 369.125 38.132812 L 367.34375 38.132812 L 367.34375 34.835938 L 369.125 34.835938 C 370.460938 34.835938 371.136719 35.445312 371.136719 36.484375 C 371.136719 37.511719 370.460938 38.132812 369.125 38.132812 Z M 371.40625 39.46875 C 372.636719 38.941406 373.351562 37.902344 373.351562 36.484375 C 373.351562 34.363281 371.773438 33.054688 369.246094 33.054688 L 365.152344 33.054688 L 365.152344 42.507812 L 367.34375 42.507812 L 367.34375 39.875 L 369.355469 39.875 L 371.179688 42.507812 L 373.527344 42.507812 L 371.40625 39.46875 " fill-opacity="1" fill-rule="nonzero"/><path fill="#fbf6f3" d="M 170.414062 1.238281 C 162.121094 1.863281 155.230469 3.730469 148.636719 7.144531 C 144.132812 9.476562 139.460938 12.980469 135.679688 16.859375 C 130.273438 22.410156 126.796875 27.917969 124.007812 35.363281 C 121.648438 41.664062 120.53125 48.769531 120.742188 56.148438 C 120.90625 61.867188 121.757812 66.5625 123.585938 71.832031 C 126.101562 79.074219 130.753906 86.460938 136.238281 91.90625 C 140.878906 96.515625 144.414062 99.113281 149.535156 101.679688 C 155.710938 104.773438 161.722656 106.515625 168.636719 107.21875 C 171.058594 107.464844 178.183594 107.429688 180.320312 107.160156 C 187.519531 106.253906 194.324219 104.046875 200.378906 100.652344 C 204.566406 98.304688 207.019531 96.480469 210.710938 92.980469 C 213.8125 90.035156 215.957031 87.535156 218.253906 84.191406 C 223.589844 76.417969 226.457031 67.8125 227.253906 57.1875 C 227.507812 53.773438 227.023438 47.746094 226.148438 43.472656 C 225.257812 39.109375 223.921875 35.152344 221.925781 30.96875 C 219.9375 26.8125 217.039062 22.53125 213.785156 18.96875 C 213.121094 18.238281 212.480469 17.515625 212.359375 17.363281 C 211.980469 16.871094 207.785156 13.136719 206.414062 12.066406 C 202.492188 9.011719 197.859375 6.390625 193.589844 4.808594 C 188.515625 2.929688 185.351562 2.171875 179.683594 1.476562 C 178.117188 1.285156 171.90625 1.125 170.414062 1.238281 M 172.753906 3.367188 C 172.726562 3.390625 171.84375 3.445312 170.796875 3.488281 C 167.703125 3.609375 163.757812 4.207031 160.445312 5.050781 C 153.941406 6.714844 147.191406 10.140625 141.640625 14.59375 C 134.597656 20.246094 129.191406 27.898438 125.980469 36.761719 C 124.707031 40.261719 124.007812 43.273438 123.410156 47.765625 C 123.125 49.921875 123.011719 55.398438 123.199219 57.882812 C 123.355469 59.90625 123.929688 64.3125 124.070312 64.539062 C 124.15625 64.679688 124.453125 64.535156 124.84375 64.164062 C 124.996094 64.023438 125.425781 63.707031 125.796875 63.46875 C 126.675781 62.902344 127.421875 62.191406 129.378906 60.070312 C 130.40625 58.960938 131.414062 58.015625 132.214844 57.417969 C 132.921875 56.894531 134.46875 55.480469 135.785156 54.160156 C 137.0625 52.875 138.324219 51.683594 138.589844 51.507812 C 139.296875 51.039062 140.066406 50.980469 140.902344 51.332031 C 141.824219 51.71875 142.351562 52.113281 143.742188 53.457031 C 145.496094 55.148438 149.582031 58.117188 149.761719 57.828125 C 149.804688 57.753906 150.183594 57.441406 150.605469 57.132812 C 151.023438 56.820312 151.851562 56.109375 152.445312 55.550781 C 154.246094 53.855469 155.265625 52.992188 155.695312 52.785156 C 156.289062 52.503906 157.457031 52.535156 158.113281 52.855469 C 158.414062 53 159.132812 53.554688 159.71875 54.09375 C 160.707031 55 161.265625 55.492188 164.148438 57.96875 C 165.402344 59.046875 165.988281 59.457031 167.238281 60.148438 C 167.730469 60.414062 168.582031 60.9375 169.136719 61.308594 C 169.691406 61.679688 170.15625 61.96875 170.171875 61.953125 C 170.183594 61.9375 170.226562 55.652344 170.265625 47.980469 C 170.324219 35.863281 170.308594 34.027344 170.148438 33.964844 C 170.046875 33.925781 169.722656 33.949219 169.429688 34.015625 C 169.101562 34.089844 166.6875 34.109375 163.304688 34.0625 C 157.261719 33.980469 157.242188 33.980469 157.042969 33.289062 C 156.996094 33.113281 156.957031 31.6875 156.957031 30.113281 C 156.960938 27.699219 156.992188 27.199219 157.171875 26.867188 C 157.496094 26.261719 158.109375 26.140625 160.574219 26.1875 C 164.074219 26.257812 170.023438 26.179688 170.203125 26.066406 C 170.34375 25.976562 170.371094 24.808594 170.359375 19.59375 C 170.34375 15.089844 170.382812 13.152344 170.484375 12.964844 C 170.78125 12.40625 171.238281 12.34375 174.390625 12.425781 C 177.179688 12.5 177.339844 12.515625 177.585938 12.773438 C 177.832031 13.039062 177.839844 13.242188 177.890625 19.5 C 177.929688 24.808594 177.96875 25.972656 178.113281 26.0625 C 178.277344 26.167969 181.609375 26.226562 188.203125 26.242188 C 191.660156 26.25 191.605469 26.230469 191.734375 27.597656 C 191.78125 28.109375 191.851562 29.453125 191.890625 30.582031 L 191.960938 32.636719 L 191.617188 33.21875 C 191.429688 33.539062 191.15625 33.871094 191.003906 33.957031 C 190.804688 34.070312 189.042969 34.117188 184.320312 34.140625 L 177.90625 34.175781 L 177.949219 41.066406 C 177.972656 44.855469 178.011719 49.699219 178.035156 51.832031 C 178.058594 53.960938 178.082031 56.324219 178.085938 57.085938 L 178.097656 58.46875 L 180.226562 56.277344 C 182.214844 54.222656 182.65625 53.703125 184.238281 51.519531 C 184.578125 51.050781 185.441406 50.058594 186.152344 49.3125 C 186.863281 48.566406 187.835938 47.527344 188.3125 47.003906 C 188.785156 46.480469 189.53125 45.710938 189.964844 45.289062 C 190.398438 44.871094 191.105469 44.121094 191.535156 43.625 C 192.867188 42.082031 194.015625 41.828125 195.792969 42.679688 C 196.246094 42.894531 196.984375 43.398438 197.433594 43.800781 C 197.882812 44.199219 198.796875 44.996094 199.464844 45.566406 C 200.128906 46.136719 201.101562 47.136719 201.621094 47.789062 C 203.066406 49.59375 204.351562 50.828125 205.542969 51.550781 C 207.042969 52.457031 207.5 52.886719 209.136719 54.921875 C 210.8125 57.011719 211.085938 57.3125 211.9375 57.992188 C 212.652344 58.5625 212.777344 58.65625 214.574219 59.921875 C 215.417969 60.515625 216.460938 61.433594 217.539062 62.535156 C 218.636719 63.65625 219.632812 64.53125 220.460938 65.105469 C 221.152344 65.585938 222.023438 66.222656 222.398438 66.523438 C 222.769531 66.824219 223.117188 67.070312 223.171875 67.070312 C 223.433594 67.070312 224.191406 63.195312 224.648438 59.511719 C 224.925781 57.300781 224.980469 51.054688 224.734375 49.480469 C 224.648438 48.921875 224.488281 47.722656 224.378906 46.8125 C 224.167969 45.078125 223.90625 43.519531 223.667969 42.558594 C 223.007812 39.886719 221.78125 36.15625 220.941406 34.257812 C 219.171875 30.257812 215.660156 24.554688 213.417969 22.042969 C 213.164062 21.757812 212.628906 21.125 212.226562 20.632812 C 211.253906 19.449219 207.074219 15.523438 205.402344 14.230469 C 203.445312 12.714844 199.601562 10.203125 197.78125 9.246094 C 192.597656 6.519531 187.222656 4.839844 180.511719 3.84375 C 179.199219 3.652344 172.875 3.261719 172.753906 3.367188 M 172.53125 20.871094 C 172.566406 26.191406 172.542969 27.335938 172.394531 27.613281 C 172.277344 27.835938 172 28.023438 171.570312 28.175781 C 170.984375 28.378906 170.351562 28.402344 164.984375 28.402344 L 159.046875 28.402344 L 159.066406 29.925781 C 159.074219 30.761719 159.132812 31.546875 159.195312 31.664062 C 159.296875 31.863281 159.777344 31.886719 164.605469 31.945312 C 172.019531 32.039062 172.121094 32.042969 172.332031 32.335938 C 172.480469 32.539062 172.511719 35.078125 172.507812 48.367188 C 172.507812 57.050781 172.542969 64.382812 172.589844 64.660156 C 172.632812 64.9375 172.714844 65.164062 172.769531 65.164062 C 172.949219 65.164062 174.492188 63.410156 175.160156 62.449219 L 175.816406 61.5 L 175.8125 54.855469 C 175.808594 50.097656 175.796875 45.34375 175.78125 40.585938 C 175.75 33.507812 175.765625 32.9375 175.96875 32.621094 C 176.09375 32.4375 176.308594 32.222656 176.445312 32.148438 C 176.617188 32.054688 178.84375 32 183.082031 31.980469 C 186.589844 31.964844 189.539062 31.902344 189.636719 31.84375 C 189.773438 31.757812 189.789062 31.472656 189.726562 30.511719 C 189.683594 29.839844 189.613281 29.085938 189.578125 28.835938 L 189.511719 28.382812 L 184.089844 28.390625 C 178.78125 28.394531 176.421875 28.300781 176.058594 28.078125 C 175.8125 27.929688 175.730469 25.605469 175.738281 19.417969 L 175.75 14.617188 C 175.75 14.617188 175.015625 14.582031 174.117188 14.539062 L 172.484375 14.464844 Z M 193.527344 44.871094 C 193.335938 45.101562 191.761719 46.746094 190.03125 48.527344 C 188.300781 50.308594 186.5 52.28125 186.027344 52.910156 C 184.332031 55.171875 183.429688 56.226562 182.402344 57.164062 C 179.613281 59.703125 179.960938 59.300781 177.714844 62.621094 C 175.320312 66.167969 174.128906 67.484375 171.007812 70.054688 C 169.816406 71.03125 168.839844 71.859375 168.839844 71.894531 C 168.835938 71.929688 169.554688 72.328125 170.433594 72.785156 C 172.992188 74.101562 174.0625 74.867188 176.296875 76.976562 C 178.898438 79.429688 179.46875 79.84375 182.042969 81.117188 C 184.753906 82.453125 185.269531 82.792969 187.007812 84.371094 C 190.332031 87.386719 190.785156 87.675781 193.90625 88.746094 C 196.613281 89.675781 197.300781 90.105469 200.890625 93.113281 C 201.691406 93.78125 203.015625 94.691406 203.71875 95.054688 C 204.265625 95.335938 204.40625 95.257812 206.433594 93.566406 C 210.386719 90.261719 214.183594 85.992188 216.898438 81.804688 C 219.257812 78.160156 220.488281 75.671875 221.984375 71.527344 L 222.59375 69.824219 L 221.898438 69.175781 C 221.515625 68.820312 220.417969 67.96875 219.460938 67.285156 C 218.230469 66.40625 217.203125 65.527344 215.972656 64.292969 C 215.011719 63.332031 213.828125 62.265625 213.335938 61.925781 C 210.457031 59.902344 209.132812 58.71875 207.796875 56.96875 C 206.378906 55.113281 205.859375 54.601562 204.449219 53.667969 C 203.679688 53.15625 202.820312 52.523438 202.539062 52.253906 C 201.925781 51.667969 200.3125 49.855469 199.617188 48.96875 C 199.054688 48.253906 198.335938 47.582031 197.210938 46.722656 C 196.789062 46.402344 196.21875 45.902344 195.941406 45.613281 C 195.339844 44.988281 194.816406 44.652344 194.273438 44.535156 C 193.929688 44.464844 193.832031 44.507812 193.527344 44.871094 M 138.984375 54.0625 C 138.546875 54.621094 135.722656 57.441406 134.730469 58.308594 C 134.453125 58.550781 133.671875 59.191406 133 59.726562 C 132.328125 60.265625 131.5 61.023438 131.160156 61.414062 C 130.246094 62.460938 128.222656 64.433594 127.492188 64.984375 C 127.144531 65.246094 126.496094 65.765625 126.054688 66.136719 C 125.617188 66.511719 125.207031 66.816406 125.148438 66.816406 C 125.09375 66.816406 124.957031 66.945312 124.851562 67.109375 C 124.675781 67.378906 124.695312 67.511719 125.105469 68.789062 C 125.832031 71.070312 126.765625 73.5 127.625 75.359375 C 129.253906 78.890625 132.460938 84.007812 134.113281 85.714844 C 134.4375 86.050781 134.585938 86.121094 134.816406 86.050781 C 135.285156 85.90625 137.214844 84.890625 137.875 84.4375 C 140.871094 82.382812 141.285156 82.042969 143.429688 79.882812 C 144.691406 78.609375 145.921875 77.488281 146.273438 77.285156 C 146.613281 77.089844 147.628906 76.628906 148.53125 76.261719 C 150.625 75.410156 151.660156 74.824219 152.625 73.953125 C 153.050781 73.570312 153.855469 72.839844 154.414062 72.335938 C 155.839844 71.046875 156.0625 70.867188 157.1875 70.152344 L 158.179688 69.519531 L 157.3125 68.644531 C 156.128906 67.445312 155.007812 66.492188 153.671875 65.546875 C 152.039062 64.394531 151.414062 63.800781 149.875 61.9375 C 148.429688 60.191406 147.542969 59.359375 145.96875 58.277344 C 144.453125 57.230469 143.835938 56.71875 142.402344 55.320312 C 140.273438 53.246094 139.765625 53.058594 138.984375 54.0625 M 155.15625 56.191406 C 154.398438 56.914062 153.292969 57.894531 152.699219 58.367188 C 151.523438 59.304688 151.175781 59.636719 151.175781 59.800781 C 151.175781 59.929688 152.34375 61.34375 153.035156 62.054688 C 153.605469 62.640625 153.675781 62.695312 155.085938 63.6875 C 156.398438 64.609375 158.898438 66.933594 159.628906 67.910156 C 160.238281 68.726562 160.542969 68.894531 161.203125 68.785156 C 162.203125 68.621094 162.539062 68.613281 163.222656 68.734375 C 163.992188 68.867188 165.074219 69.359375 166.109375 70.042969 L 166.753906 70.46875 L 168.15625 69.308594 C 168.925781 68.671875 169.875 67.867188 170.265625 67.519531 L 170.976562 66.890625 L 170.578125 66.1875 C 169.695312 64.609375 168.71875 63.757812 165.96875 62.144531 C 164.160156 61.085938 163.367188 60.484375 161.589844 58.828125 C 160.855469 58.140625 159.65625 57.070312 158.921875 56.441406 C 158.1875 55.816406 157.511719 55.207031 157.414062 55.089844 C 157.019531 54.609375 156.601562 54.816406 155.15625 56.191406 M 160.539062 71.089844 C 159.3125 71.308594 158.777344 71.640625 156.574219 73.542969 C 155.664062 74.328125 154.503906 75.328125 153.992188 75.769531 C 153.484375 76.210938 152.683594 76.800781 152.214844 77.074219 C 151.285156 77.625 149.097656 78.59375 148 78.941406 C 147.253906 79.179688 147.113281 79.304688 144.539062 82.0625 C 143.855469 82.789062 143.027344 83.585938 142.695312 83.828125 C 141.324219 84.839844 137.71875 87.191406 136.921875 87.59375 C 136.449219 87.832031 136.0625 88.070312 136.0625 88.125 C 136.0625 88.179688 136.722656 88.917969 137.53125 89.769531 C 140.414062 92.804688 144.230469 95.859375 147.875 98.046875 C 150.71875 99.753906 154.0625 101.285156 157.398438 102.410156 C 170.570312 106.851562 185.019531 105.863281 197.082031 99.703125 C 198.863281 98.792969 201.296875 97.398438 201.914062 96.933594 L 202.183594 96.730469 L 201.792969 96.449219 C 201.578125 96.292969 201 95.894531 200.511719 95.5625 C 200.023438 95.234375 198.878906 94.363281 197.972656 93.636719 C 196.191406 92.203125 194.910156 91.5 192.957031 90.875 C 191.371094 90.371094 189.207031 89.277344 188.191406 88.464844 C 187.703125 88.074219 186.792969 87.285156 186.171875 86.714844 C 184.316406 85.007812 183.472656 84.394531 182.179688 83.8125 C 179.078125 82.417969 177.6875 81.460938 175 78.878906 C 173.945312 77.863281 172.910156 76.914062 172.699219 76.761719 C 172.304688 76.484375 170.832031 75.660156 168.699219 74.53125 C 168.035156 74.179688 167.265625 73.710938 166.984375 73.488281 C 166.0625 72.75 164.511719 71.757812 163.585938 71.316406 C 162.566406 70.828125 162.167969 70.796875 160.539062 71.089844 " fill-opacity="1" fill-rule="evenodd"/><g clip-path="url(#6e70553fab)"><g clip-path="url(#e2c33bd1cb)"><g transform="matrix(1, 0, 0, 1, 157, 13)"><g clip-path="url(#18ac1aa87a)"><g clip-path="url(#44d89f3cf9)"><g clip-path="url(#c48e86c461)"><rect x="-374.9754" width="822.7008" fill="#fbf6f3" height="822.700769" y="-332.975392" fill-opacity="1"/></g></g></g></g></g></g><g clip-path="url(#c8520d234e)"><g clip-path="url(#c7dc818875)"><g transform="matrix(1, 0, 0, 1, 170, 29)"><g clip-path="url(#20606d986f)"><g clip-path="url(#e503d0fa36)"><g clip-path="url(#f2187eaddd)"><rect x="-387.9754" width="822.7008" fill="#fbf6f3" height="822.700769" y="-348.975392" fill-opacity="1"/></g></g></g></g></g></g></g></g></g></g></g></svg>